<svg xmlns="http://www.w3.org/2000/svg" xmlns:xlink="http://www.w3.org/1999/xlink" width="500" zoomAndPan="magnify" viewBox="0 0 375 374.999991" height="500" preserveAspectRatio="xMidYMid meet" version="1.2"><defs><clipPath id="cfe64dac23"><path d="M 0 151.777344 L 375 151.777344 L 375 223.027344 L 0 223.027344 Z M 0 151.777344 "/></clipPath></defs><g id="c13132b6ad"><rect x="0" width="375" y="0" height="374.999991" style="fill:#ffffff;fill-opacity:1;stroke:none;"/><rect x="0" width="375" y="0" height="374.999991" style="fill:#000000;fill-opacity:1;stroke:none;"/><g clip-rule="nonzero" clip-path="url(#cfe64dac23)"><path style=" stroke:none;fill-rule:nonzero;fill:#ffffff;fill-opacity:1;" d="M 496.738281 223.214844 C 470.308594 223.214844 455.980469 211.429688 445.503906 202.816406 C 436.890625 195.710938 431.652344 191.464844 419.429688 191.464844 C 407.203125 191.464844 402.007812 195.753906 393.355469 202.816406 C 382.875 211.429688 368.550781 223.214844 342.117188 223.214844 C 315.6875 223.214844 301.359375 211.429688 290.882812 202.816406 C 282.269531 195.710938 277.03125 191.464844 264.804688 191.464844 C 252.582031 191.464844 247.382812 195.753906 238.730469 202.816406 C 228.253906 211.429688 213.925781 223.214844 187.496094 223.214844 C 161.0625 223.214844 146.734375 211.429688 136.257812 202.816406 C 127.644531 195.710938 122.40625 191.464844 110.183594 191.464844 C 97.960938 191.464844 92.761719 195.753906 84.109375 202.816406 C 73.632812 211.429688 59.304688 223.214844 32.871094 223.214844 C 6.441406 223.214844 -7.886719 211.429688 -18.363281 202.816406 C -26.976562 195.710938 -32.214844 191.464844 -44.4375 191.464844 C -56.664062 191.464844 -61.863281 195.753906 -70.511719 202.816406 C -80.992188 211.429688 -95.316406 223.214844 -121.75 223.214844 C -148.183594 223.214844 -162.507812 211.429688 -172.988281 202.816406 C -181.636719 195.753906 -186.835938 191.464844 -199.0625 191.464844 L -199.0625 151.777344 C -172.628906 151.777344 -158.300781 163.566406 -147.824219 172.179688 C -139.210938 179.28125 -133.972656 183.527344 -121.75 183.527344 C -109.527344 183.527344 -104.328125 179.242188 -95.675781 172.179688 C -85.199219 163.566406 -70.871094 151.777344 -44.4375 151.777344 C -18.007812 151.777344 -3.679688 163.566406 6.796875 172.179688 C 15.410156 179.28125 20.648438 183.527344 32.871094 183.527344 C 45.097656 183.527344 50.296875 179.242188 58.949219 172.179688 C 69.425781 163.566406 83.753906 151.777344 110.183594 151.777344 C 136.617188 151.777344 150.941406 163.566406 161.421875 172.179688 C 170.03125 179.28125 175.269531 183.527344 187.496094 183.527344 C 199.71875 183.527344 204.917969 179.242188 213.570312 172.179688 C 224.046875 163.566406 238.375 151.777344 264.804688 151.777344 C 291.238281 151.777344 305.566406 163.566406 316.042969 172.179688 C 324.65625 179.28125 329.894531 183.527344 342.117188 183.527344 C 354.339844 183.527344 359.539062 179.242188 368.191406 172.179688 C 378.667969 163.566406 392.996094 151.777344 419.429688 151.777344 C 445.859375 151.777344 460.1875 163.566406 470.664062 172.179688 C 479.277344 179.28125 484.515625 183.527344 496.738281 183.527344 C 508.964844 183.527344 514.164062 179.242188 522.816406 172.179688 C 533.292969 163.566406 547.621094 151.777344 574.050781 151.777344 L 574.050781 191.464844 C 561.828125 191.464844 556.628906 195.753906 547.976562 202.816406 C 537.5 211.429688 523.171875 223.214844 496.738281 223.214844 Z M 496.738281 223.214844 "/></g></g></svg>