<svg xmlns="http://www.w3.org/2000/svg" xmlns:xlink="http://www.w3.org/1999/xlink" width="500" zoomAndPan="magnify" viewBox="0 0 375 74.999997" height="100" preserveAspectRatio="xMidYMid meet" version="1.2"><defs><clipPath id="900b9589b7"><rect x="0" width="368" y="0" height="61"/></clipPath></defs><g id="3704d3309d"><g transform="matrix(1,0,0,1,4,5)"><g clip-path="url(#900b9589b7)"><g style="fill:#000000;fill-opacity:1;"><g transform="translate(0.768305, 48.430291)"><path style="stroke:none" d="M 15.34375 0 L 3.015625 0 L 3.015625 -34.765625 L 15.453125 -34.765625 C 18.941406 -34.765625 21.953125 -34.070312 24.484375 -32.6875 C 27.015625 -31.300781 28.957031 -29.3125 30.3125 -26.71875 C 31.664062 -24.125 32.34375 -21.023438 32.34375 -17.421875 C 32.34375 -13.796875 31.660156 -10.679688 30.296875 -8.078125 C 28.941406 -5.472656 26.992188 -3.472656 24.453125 -2.078125 C 21.910156 -0.691406 18.875 0 15.34375 0 Z M 10.375 -6.296875 L 15.03125 -6.296875 C 18.300781 -6.296875 20.78125 -7.175781 22.46875 -8.9375 C 24.164062 -10.707031 25.015625 -13.535156 25.015625 -17.421875 C 25.015625 -21.273438 24.164062 -24.078125 22.46875 -25.828125 C 20.78125 -27.585938 18.3125 -28.46875 15.0625 -28.46875 L 10.375 -28.46875 Z M 10.375 -6.296875 "/></g></g><g style="fill:#000000;fill-opacity:1;"><g transform="translate(35.524429, 48.430291)"><path style="stroke:none" d="M 14.671875 0.515625 C 12.023438 0.515625 9.742188 -0.046875 7.828125 -1.171875 C 5.910156 -2.304688 4.429688 -3.878906 3.390625 -5.890625 C 2.347656 -7.910156 1.828125 -10.257812 1.828125 -12.9375 C 1.828125 -15.625 2.347656 -17.976562 3.390625 -20 C 4.429688 -22.019531 5.910156 -23.59375 7.828125 -24.71875 C 9.742188 -25.84375 12.023438 -26.40625 14.671875 -26.40625 C 17.304688 -26.40625 19.582031 -25.84375 21.5 -24.71875 C 23.414062 -23.59375 24.894531 -22.019531 25.9375 -20 C 26.976562 -17.976562 27.5 -15.625 27.5 -12.9375 C 27.5 -10.257812 26.976562 -7.910156 25.9375 -5.890625 C 24.894531 -3.878906 23.414062 -2.304688 21.5 -1.171875 C 19.582031 -0.046875 17.304688 0.515625 14.671875 0.515625 Z M 14.703125 -5.09375 C 16.484375 -5.09375 17.832031 -5.835938 18.75 -7.328125 C 19.675781 -8.828125 20.140625 -10.710938 20.140625 -12.984375 C 20.140625 -15.253906 19.675781 -17.140625 18.75 -18.640625 C 17.832031 -20.140625 16.484375 -20.890625 14.703125 -20.890625 C 12.878906 -20.890625 11.503906 -20.140625 10.578125 -18.640625 C 9.648438 -17.140625 9.1875 -15.253906 9.1875 -12.984375 C 9.1875 -10.710938 9.648438 -8.828125 10.578125 -7.328125 C 11.503906 -5.835938 12.878906 -5.09375 14.703125 -5.09375 Z M 14.703125 -5.09375 "/></g></g><g style="fill:#000000;fill-opacity:1;"><g transform="translate(64.849909, 48.430291)"><path style="stroke:none" d="M 14.671875 0.515625 C 11.992188 0.515625 9.695312 -0.0507812 7.78125 -1.1875 C 5.863281 -2.332031 4.390625 -3.914062 3.359375 -5.9375 C 2.335938 -7.96875 1.828125 -10.300781 1.828125 -12.9375 C 1.828125 -15.601562 2.34375 -17.945312 3.375 -19.96875 C 4.414062 -21.988281 5.890625 -23.566406 7.796875 -24.703125 C 9.710938 -25.835938 11.988281 -26.40625 14.625 -26.40625 C 16.90625 -26.40625 18.898438 -25.992188 20.609375 -25.171875 C 22.328125 -24.347656 23.679688 -23.1875 24.671875 -21.6875 C 25.660156 -20.195312 26.207031 -18.445312 26.3125 -16.4375 L 19.484375 -16.4375 C 19.296875 -17.726562 18.789062 -18.773438 17.96875 -19.578125 C 17.144531 -20.378906 16.070312 -20.78125 14.75 -20.78125 C 13.070312 -20.78125 11.722656 -20.101562 10.703125 -18.75 C 9.691406 -17.40625 9.1875 -15.5 9.1875 -13.03125 C 9.1875 -10.539062 9.691406 -8.613281 10.703125 -7.25 C 11.710938 -5.882812 13.0625 -5.203125 14.75 -5.203125 C 15.988281 -5.203125 17.03125 -5.578125 17.875 -6.328125 C 18.726562 -7.085938 19.265625 -8.164062 19.484375 -9.5625 L 26.3125 -9.5625 C 26.195312 -7.5625 25.65625 -5.800781 24.6875 -4.28125 C 23.71875 -2.769531 22.382812 -1.59375 20.6875 -0.75 C 18.988281 0.09375 16.984375 0.515625 14.671875 0.515625 Z M 14.671875 0.515625 "/></g></g><g style="fill:#000000;fill-opacity:1;"><g transform="translate(92.919531, 48.430291)"><path style="stroke:none" d="M 19.609375 -11.09375 L 19.609375 -26.078125 L 26.828125 -26.078125 L 26.828125 0 L 19.890625 0 L 19.890625 -4.734375 L 19.625 -4.734375 C 19.03125 -3.203125 18.050781 -1.972656 16.6875 -1.046875 C 15.320312 -0.117188 13.664062 0.34375 11.71875 0.34375 C 9.09375 0.34375 6.96875 -0.53125 5.34375 -2.28125 C 3.71875 -4.03125 2.898438 -6.425781 2.890625 -9.46875 L 2.890625 -26.078125 L 10.109375 -26.078125 L 10.109375 -10.765625 C 10.128906 -9.222656 10.546875 -8.003906 11.359375 -7.109375 C 12.171875 -6.210938 13.257812 -5.765625 14.625 -5.765625 C 15.925781 -5.765625 17.082031 -6.21875 18.09375 -7.125 C 19.113281 -8.03125 19.617188 -9.351562 19.609375 -11.09375 Z M 19.609375 -11.09375 "/></g></g><g style="fill:#000000;fill-opacity:1;"><g transform="translate(122.635332, 48.430291)"><path style="stroke:none" d="M 2.890625 0 L 2.890625 -26.078125 L 9.78125 -26.078125 L 9.78125 -21.46875 L 10.078125 -21.46875 C 10.617188 -23.007812 11.523438 -24.21875 12.796875 -25.09375 C 14.078125 -25.96875 15.59375 -26.40625 17.34375 -26.40625 C 19.132812 -26.40625 20.65625 -25.960938 21.90625 -25.078125 C 23.164062 -24.191406 24.003906 -22.988281 24.421875 -21.46875 L 24.703125 -21.46875 C 25.234375 -22.96875 26.195312 -24.164062 27.59375 -25.0625 C 28.988281 -25.957031 30.644531 -26.40625 32.5625 -26.40625 C 34.988281 -26.40625 36.960938 -25.632812 38.484375 -24.09375 C 40.003906 -22.550781 40.765625 -20.363281 40.765625 -17.53125 L 40.765625 0 L 33.5625 0 L 33.5625 -16.109375 C 33.5625 -17.554688 33.175781 -18.640625 32.40625 -19.359375 C 31.632812 -20.085938 30.671875 -20.453125 29.515625 -20.453125 C 28.203125 -20.453125 27.175781 -20.03125 26.4375 -19.1875 C 25.707031 -18.351562 25.34375 -17.265625 25.34375 -15.921875 L 25.34375 0 L 18.328125 0 L 18.328125 -16.265625 C 18.328125 -17.535156 17.960938 -18.550781 17.234375 -19.3125 C 16.503906 -20.070312 15.546875 -20.453125 14.359375 -20.453125 C 13.160156 -20.453125 12.148438 -20.015625 11.328125 -19.140625 C 10.515625 -18.265625 10.109375 -17.101562 10.109375 -15.65625 L 10.109375 0 Z M 2.890625 0 "/></g></g><g style="fill:#000000;fill-opacity:1;"><g transform="translate(166.216246, 48.430291)"><path style="stroke:none" d="M 14.765625 0.515625 C 12.097656 0.515625 9.796875 -0.03125 7.859375 -1.125 C 5.921875 -2.21875 4.429688 -3.769531 3.390625 -5.78125 C 2.347656 -7.789062 1.828125 -10.171875 1.828125 -12.921875 C 1.828125 -15.597656 2.347656 -17.945312 3.390625 -19.96875 C 4.429688 -22 5.898438 -23.578125 7.796875 -24.703125 C 9.691406 -25.835938 11.921875 -26.40625 14.484375 -26.40625 C 16.773438 -26.40625 18.84375 -25.914062 20.6875 -24.9375 C 22.539062 -23.96875 24.007812 -22.5 25.09375 -20.53125 C 26.1875 -18.570312 26.734375 -16.117188 26.734375 -13.171875 L 26.734375 -11.1875 L 8.984375 -11.1875 L 8.984375 -11.171875 C 8.984375 -9.222656 9.515625 -7.6875 10.578125 -6.5625 C 11.640625 -5.445312 13.078125 -4.890625 14.890625 -4.890625 C 16.097656 -4.890625 17.140625 -5.144531 18.015625 -5.65625 C 18.898438 -6.164062 19.523438 -6.914062 19.890625 -7.90625 L 26.578125 -7.46875 C 26.066406 -5.050781 24.773438 -3.113281 22.703125 -1.65625 C 20.640625 -0.207031 17.992188 0.515625 14.765625 0.515625 Z M 8.984375 -15.671875 L 19.921875 -15.671875 C 19.910156 -17.210938 19.410156 -18.488281 18.421875 -19.5 C 17.441406 -20.507812 16.164062 -21.015625 14.59375 -21.015625 C 12.988281 -21.015625 11.671875 -20.492188 10.640625 -19.453125 C 9.609375 -18.410156 9.054688 -17.148438 8.984375 -15.671875 Z M 8.984375 -15.671875 "/></g></g><g style="fill:#000000;fill-opacity:1;"><g transform="translate(194.778038, 48.430291)"><path style="stroke:none" d="M 10.109375 -15.078125 L 10.109375 0 L 2.890625 0 L 2.890625 -26.078125 L 9.78125 -26.078125 L 9.78125 -21.46875 L 10.078125 -21.46875 C 10.671875 -22.988281 11.640625 -24.191406 12.984375 -25.078125 C 14.335938 -25.960938 15.984375 -26.40625 17.921875 -26.40625 C 20.640625 -26.40625 22.816406 -25.53125 24.453125 -23.78125 C 26.097656 -22.039062 26.921875 -19.644531 26.921875 -16.59375 L 26.921875 0 L 19.6875 0 L 19.6875 -15.3125 C 19.695312 -16.90625 19.289062 -18.148438 18.46875 -19.046875 C 17.644531 -19.953125 16.507812 -20.40625 15.0625 -20.40625 C 13.59375 -20.40625 12.40625 -19.9375 11.5 -19 C 10.59375 -18.0625 10.128906 -16.753906 10.109375 -15.078125 Z M 10.109375 -15.078125 "/></g></g><g style="fill:#000000;fill-opacity:1;"><g transform="translate(224.493839, 48.430291)"><path style="stroke:none" d="M 16.75 -26.078125 L 16.75 -20.640625 L 11.84375 -20.640625 L 11.84375 -8.015625 C 11.84375 -7.015625 12.066406 -6.335938 12.515625 -5.984375 C 12.972656 -5.640625 13.566406 -5.46875 14.296875 -5.46875 C 14.628906 -5.46875 14.960938 -5.5 15.296875 -5.5625 C 15.640625 -5.625 15.90625 -5.671875 16.09375 -5.703125 L 17.234375 -0.328125 C 16.867188 -0.210938 16.359375 -0.078125 15.703125 0.078125 C 15.046875 0.234375 14.25 0.328125 13.3125 0.359375 C 10.6875 0.472656 8.578125 -0.09375 6.984375 -1.34375 C 5.390625 -2.59375 4.597656 -4.5 4.609375 -7.0625 L 4.609375 -20.640625 L 1.046875 -20.640625 L 1.046875 -26.078125 L 4.609375 -26.078125 L 4.609375 -32.3125 L 11.84375 -32.3125 L 11.84375 -26.078125 Z M 16.75 -26.078125 "/></g></g><g style="fill:#000000;fill-opacity:1;"><g transform="translate(243.059879, 48.430291)"><path style="stroke:none" d="M 8.03125 0 L 0.9375 -26.078125 L 8.25 -26.078125 L 12.28125 -8.546875 L 12.53125 -8.546875 L 16.734375 -26.078125 L 23.921875 -26.078125 L 28.1875 -8.65625 L 28.40625 -8.65625 L 32.390625 -26.078125 L 39.6875 -26.078125 L 32.609375 0 L 24.953125 0 L 20.46875 -16.390625 L 20.140625 -16.390625 L 15.671875 0 Z M 8.03125 0 "/></g></g><g style="fill:#000000;fill-opacity:1;"><g transform="translate(283.687893, 48.430291)"><path style="stroke:none" d="M 10.3125 0.5 C 7.820312 0.5 5.753906 -0.148438 4.109375 -1.453125 C 2.472656 -2.753906 1.65625 -4.695312 1.65625 -7.28125 C 1.65625 -9.226562 2.113281 -10.753906 3.03125 -11.859375 C 3.945312 -12.972656 5.148438 -13.785156 6.640625 -14.296875 C 8.128906 -14.816406 9.734375 -15.15625 11.453125 -15.3125 C 13.722656 -15.539062 15.34375 -15.773438 16.3125 -16.015625 C 17.28125 -16.265625 17.765625 -16.8125 17.765625 -17.65625 L 17.765625 -17.75 C 17.765625 -18.820312 17.425781 -19.648438 16.75 -20.234375 C 16.082031 -20.828125 15.132812 -21.125 13.90625 -21.125 C 12.601562 -21.125 11.566406 -20.84375 10.796875 -20.28125 C 10.023438 -19.71875 9.515625 -19 9.265625 -18.125 L 2.578125 -18.671875 C 3.078125 -21.046875 4.3125 -22.925781 6.28125 -24.3125 C 8.257812 -25.707031 10.8125 -26.40625 13.9375 -26.40625 C 15.875 -26.40625 17.679688 -26.097656 19.359375 -25.484375 C 21.046875 -24.878906 22.40625 -23.925781 23.4375 -22.625 C 24.476562 -21.332031 25 -19.648438 25 -17.578125 L 25 0 L 18.140625 0 L 18.140625 -3.609375 L 17.9375 -3.609375 C 17.300781 -2.398438 16.351562 -1.410156 15.09375 -0.640625 C 13.832031 0.117188 12.238281 0.5 10.3125 0.5 Z M 12.390625 -4.5 C 13.972656 -4.5 15.273438 -4.957031 16.296875 -5.875 C 17.316406 -6.800781 17.828125 -7.945312 17.828125 -9.3125 L 17.828125 -12.078125 C 17.535156 -11.890625 17.09375 -11.722656 16.5 -11.578125 C 15.90625 -11.429688 15.269531 -11.300781 14.59375 -11.1875 C 13.925781 -11.082031 13.328125 -10.988281 12.796875 -10.90625 C 11.523438 -10.726562 10.503906 -10.375 9.734375 -9.84375 C 8.960938 -9.3125 8.578125 -8.535156 8.578125 -7.515625 C 8.578125 -6.523438 8.9375 -5.773438 9.65625 -5.265625 C 10.375 -4.753906 11.285156 -4.5 12.390625 -4.5 Z M 12.390625 -4.5 "/></g></g><g style="fill:#000000;fill-opacity:1;"><g transform="translate(310.467749, 48.430291)"><path style="stroke:none" d="M 27.1875 -26.078125 L 18.078125 0 L 9.921875 0 L 0.8125 -26.078125 L 8.453125 -26.078125 L 13.859375 -7.421875 L 14.140625 -7.421875 L 19.53125 -26.078125 Z M 27.1875 -26.078125 "/></g></g><g style="fill:#000000;fill-opacity:1;"><g transform="translate(337.603955, 48.430291)"><path style="stroke:none" d="M 14.765625 0.515625 C 12.097656 0.515625 9.796875 -0.03125 7.859375 -1.125 C 5.921875 -2.21875 4.429688 -3.769531 3.390625 -5.78125 C 2.347656 -7.789062 1.828125 -10.171875 1.828125 -12.921875 C 1.828125 -15.597656 2.347656 -17.945312 3.390625 -19.96875 C 4.429688 -22 5.898438 -23.578125 7.796875 -24.703125 C 9.691406 -25.835938 11.921875 -26.40625 14.484375 -26.40625 C 16.773438 -26.40625 18.84375 -25.914062 20.6875 -24.9375 C 22.539062 -23.96875 24.007812 -22.5 25.09375 -20.53125 C 26.1875 -18.570312 26.734375 -16.117188 26.734375 -13.171875 L 26.734375 -11.1875 L 8.984375 -11.1875 L 8.984375 -11.171875 C 8.984375 -9.222656 9.515625 -7.6875 10.578125 -6.5625 C 11.640625 -5.445312 13.078125 -4.890625 14.890625 -4.890625 C 16.097656 -4.890625 17.140625 -5.144531 18.015625 -5.65625 C 18.898438 -6.164062 19.523438 -6.914062 19.890625 -7.90625 L 26.578125 -7.46875 C 26.066406 -5.050781 24.773438 -3.113281 22.703125 -1.65625 C 20.640625 -0.207031 17.992188 0.515625 14.765625 0.515625 Z M 8.984375 -15.671875 L 19.921875 -15.671875 C 19.910156 -17.210938 19.410156 -18.488281 18.421875 -19.5 C 17.441406 -20.507812 16.164062 -21.015625 14.59375 -21.015625 C 12.988281 -21.015625 11.671875 -20.492188 10.640625 -19.453125 C 9.609375 -18.410156 9.054688 -17.148438 8.984375 -15.671875 Z M 8.984375 -15.671875 "/></g></g></g></g></g></svg>